<svg width="502" height="702" viewBox="0 0 502 702" fill="none" xmlns="http://www.w3.org/2000/svg">
<path fill-rule="evenodd" clip-rule="evenodd" d="M15.1973 389.206C14.5529 340.392 -6.52746 289.66 3.88335 239.921C12.4322 199.07 55.4707 195.66 81.2897 177.152C101.807 162.449 113.451 136.402 124.546 111.41C134.516 88.9739 143.47 65.8628 153.973 43.7948C160.771 29.5284 172.445 1.51394 187.189 1.008C201.303 0.52079 214.246 22.3514 222.444 35.2562C233.134 52.0773 242.612 70.0103 252.992 87.1001C270.485 115.927 291.474 137.264 315.508 157.458C342.857 180.436 370.658 202.629 398.911 224.037C419.712 239.846 440.655 255.536 460.65 272.907C473.192 283.807 500.873 304.257 501 324.351C501.061 333.939 493.679 344.558 488.701 352.222C480.279 365.196 470.68 377.057 461.051 388.663C443.116 410.281 424.42 430.919 405.927 451.806C381.925 478.915 358.998 505.58 337.897 536.355C316.081 568.211 295.239 601.117 273.971 633.572C259.567 655.559 245.179 680.25 224.403 693.742C198.381 710.607 177.021 692.824 150.705 692.618C128.067 692.437 129.736 627.875 126.86 609.924C123.973 591.753 117.611 574.839 115.145 556.625C112.071 533.888 112.03 510.627 111.274 487.647C110.356 459.539 109.99 432.78 85.5819 422.062C71.6906 415.971 56.663 414.691 42.2847 411.043C32.9697 408.676 15.4002 404.628 15.1973 389.206Z" stroke="#C9C9C9"/>
<path fill-rule="evenodd" clip-rule="evenodd" d="M27.4118 380.306C25.0376 339.393 11.0114 287.027 24.2751 244.794C35.6069 208.703 71.0463 204.025 94.9099 185.066C114.61 169.429 123.379 143.84 133.227 118.702C141.127 98.5362 148.788 78.1766 157.756 58.6551C164.365 44.2689 174.457 19.9811 188.198 17.0038C200.552 14.3267 213.8 35.7685 220.735 46.677C230.852 62.6019 239.504 79.8966 248.442 96.8286C264.146 126.571 280.226 153.316 303.21 175.165C326.295 197.107 351.552 213.513 377.078 230.589C397.047 243.95 416.915 257.698 435.888 273.122C450.021 284.606 470.341 299.305 476.807 319.784C481.927 335.984 455.964 362.867 448.308 372.356C432.548 391.865 415.847 410.179 399.116 428.381C378.72 450.561 357.673 469.957 339.661 495.258C307.445 540.494 280.516 596.825 239.062 630.445C214.06 650.723 186.236 655.909 158.427 652.875C147.416 651.674 144.772 632.553 143.384 621.401C141.076 602.874 140.786 584.028 139.012 565.426C137.35 548.012 133.659 531.468 130.685 514.392C127.675 497.091 126.831 479.365 124.615 461.945C123.242 451.13 121.885 438.545 115.881 429.851C109.668 420.85 99.4192 417.079 90.4615 414.214C73.6391 408.885 29.0895 409.179 27.4118 380.306Z" stroke="#C9C9C9"/>
<path fill-rule="evenodd" clip-rule="evenodd" d="M40.5513 364.692C36.5621 327.1 30.9771 280.279 47.2289 245.645C60.5128 217.326 88.8441 211.217 109.08 192.764C125.911 177.42 132.269 153.015 140.623 130.336C147.479 111.734 154.37 93.0506 162.678 75.3489C168.98 61.924 177.101 43.7221 189.612 39.0387C200.309 35.0369 212.394 52.9637 218.325 61.8865C228.422 77.0934 236.655 94.1324 244.832 110.946C258.207 138.459 270.515 167.847 289.552 190.226C308.05 211.942 330.024 224.76 352.409 239.173C369.555 250.215 386.595 261.683 402.75 274.852C415.155 284.956 430.528 296.93 436.992 313.744C442.582 328.245 428.231 345.409 421.06 355.638C409.219 372.521 396.078 388.009 383.119 403.56C369.134 420.336 353.644 435.812 340.111 453.001C311.653 489.174 288.917 529.223 253.842 556.936C231.126 574.887 200.558 591.195 173.706 588.262C154.395 586.149 155.665 533.487 153.811 516.661C150.761 489.149 144.872 460.242 135.516 434.899C127.481 413.183 108.389 406.486 90.8261 401.615C79.8239 398.558 68.2932 396.907 57.6518 392.18C45.3333 386.702 42.2233 380.449 40.5513 364.692Z" stroke="#C9C9C9"/>
<path fill-rule="evenodd" clip-rule="evenodd" d="M54.9935 346.797C52.6201 315.023 53.1538 277.45 68.5273 249.964C82 225.889 105.988 219.551 123.049 200.586C136.364 185.79 141.593 161.664 148.754 142.097C157.505 118.173 169.769 73.9851 191.846 64.982C212.383 56.6122 233.86 110.079 241.295 126.022C253.065 151.257 262.909 178.931 277.185 202.234C289.479 222.297 305.95 233.388 323.432 245.306C345.723 260.529 379.565 278.578 391.482 308.246C400.366 330.352 371.479 363.217 361.615 378.534C351.298 394.533 343.527 413.499 332.88 428.934C316.079 453.291 288.854 472.902 266.375 487.868C244.522 502.426 216.143 518.538 191.353 517.579C175.059 516.952 171.959 485.93 168.483 470.777C163.502 449.235 156.88 429.931 142.655 415.279C128.176 400.364 111.111 393.336 93.1706 387.185C83.9617 384.051 73.4569 381.606 65.2188 375.273C56.1167 368.383 55.9083 359.01 54.9935 346.797Z" stroke="#C9C9C9"/>
<path fill-rule="evenodd" clip-rule="evenodd" d="M69.6411 328.169C69.7733 300.661 74.8806 271.327 90.0248 250.107C102.638 232.433 122.381 226.525 134.456 208.457C144.02 194.153 148.889 174.071 155.292 157.46C163.123 137.104 174.197 101.543 193.671 94.4781C212.677 87.601 229.488 126.769 236.776 142.268C247.448 164.994 256.087 189.082 266.856 211.746C275.292 229.526 285.608 240.986 299.345 252.446C315.47 265.906 337.967 280.817 346.581 303.086C352.791 319.21 337.759 344.974 332.301 359.179C328.642 368.719 325.293 378.41 323.453 388.75C322.02 396.803 321.878 404.255 317.726 411.17C307.272 428.563 284.353 430.832 268.802 436.565C248.149 444.174 226.236 452.82 204.622 454.471C191.338 455.502 184.559 440.429 176.977 429.826C168.017 417.29 155.333 408.275 144.254 398.816C129.633 386.312 113.722 378.535 97.2614 370.57C89.8367 366.975 81.1161 363.449 75.3634 356.303C69.3565 348.894 69.5954 338.097 69.6411 328.169Z" stroke="#C9C9C9"/>
<path fill-rule="evenodd" clip-rule="evenodd" d="M87.8219 310.43C90.4507 287.485 98.6426 265.556 112.479 249.336C123.086 236.883 137.172 229.872 145.685 214.91C153.617 200.962 159.145 185.104 165.696 170.191C172.63 154.426 182.931 128.076 198.923 123.786C216.157 119.166 229.434 145.746 236.785 160.478C246.072 179.095 253.128 199.126 261.432 218.384C267.688 232.738 275.668 245.866 285.106 257.33C295.005 269.416 308.429 280.991 313.437 297.609C317.864 312.329 309.58 330.136 308.118 345.061C306.554 361.007 309.295 377.756 300.624 391.448C282.743 419.685 237.865 414.449 212.209 415.053C186.895 415.675 166.542 398.397 146.057 381.959C132.526 371.106 118.435 361.916 104.562 351.804C90.4201 341.487 85.509 330.622 87.8219 310.43Z" stroke="#C9C9C9"/>
<path fill-rule="evenodd" clip-rule="evenodd" d="M104.33 298.151C112.063 264.91 136.218 247.242 153.486 222.121C167.615 201.556 178.209 158.966 202.004 153.333C229.019 146.939 245.192 203.369 254.584 225.144C265.005 249.292 283.567 268.936 291.285 294.499C295.342 307.917 291.858 320.437 289.698 333.848C287.329 348.574 285.549 363.63 277.374 375.484C261.283 398.81 229.856 398.648 207.222 399.29C183.793 399.956 163.066 383.971 144.398 368.018C124.6 351.123 96.4081 332.24 104.33 298.151Z" stroke="#C9C9C9"/>
<path fill-rule="evenodd" clip-rule="evenodd" d="M115.846 289.104C124.662 265.084 143.187 245.556 158.219 227.121C170.766 211.753 184.263 180.815 203.393 178.609C225.877 176.008 239.504 209.045 248.351 229.301C257.058 249.206 269.605 270.223 274.426 292.069C279.454 314.827 266.065 345.476 253.296 361.579C239.054 379.536 215.754 386.171 195.761 385.455C174.828 384.726 155.62 369.885 139.766 354.492C122.817 338.036 105.593 316.988 115.846 289.104Z" stroke="#C9C9C9"/>
<path fill-rule="evenodd" clip-rule="evenodd" d="M128.334 284.34C136.695 264.758 151.186 248.193 164.548 233.418C174.86 222.011 190.076 202.614 204.953 202.139C221.319 201.614 235.189 217.896 241.696 234.584C248.11 251.044 254.868 271.68 255.828 289.738C257.913 329.062 215.465 373.111 183.59 369.527C153.369 366.128 111.665 323.355 128.334 284.34Z" stroke="#C9C9C9"/>
<path fill-rule="evenodd" clip-rule="evenodd" d="M140.681 282.304C152.185 256.928 180.127 220.75 205.996 219.891C235.689 218.909 243.143 259.168 239.272 288.343C235.341 318.12 201.107 361.22 173.809 355.396C147.168 349.713 127.048 312.4 140.681 282.304Z" stroke="#C9C9C9"/>
<path fill-rule="evenodd" clip-rule="evenodd" d="M150.981 277.278C160.79 255.634 181.721 228.599 203.552 227.78C229.565 226.812 229.074 261.437 223.175 282.988C217.042 305.363 190.027 343.58 167.251 337.545C145.102 331.655 141.581 298.023 150.981 277.278Z" stroke="#C9C9C9"/>
<path fill-rule="evenodd" clip-rule="evenodd" d="M162.281 275.935C168.53 260.17 184.171 240.245 199.04 239.607C217.213 238.841 213.681 266.874 208.985 280.405C203.404 296.505 184.695 324.48 168.995 319.946C153.538 315.483 157.125 288.925 162.281 275.935Z" stroke="#C9C9C9"/>
</svg>
